<svg width="16" height="16" viewBox="0 0 16 16" fill="none" xmlns="http://www.w3.org/2000/svg">
<g clip-path="url(#clip0_17_2)">
<circle cx="8" cy="8" r="8" fill="black"/>
<path d="M4 8.99278C4.07423 8.85545 4.14846 8.71812 4.41311 8.29106C4.67776 7.864 5.13057 7.15138 5.52159 6.59312C5.9126 6.03486 6.22808 5.65257 6.437 5.41666C6.72563 5.09073 6.864 5.01507 6.89971 5.03537C6.92437 5.04939 6.88717 5.12619 6.64749 5.66162C6.40781 6.19705 5.94757 7.20289 5.6511 7.92519C5.35462 8.64749 5.23585 9.05576 5.17095 9.33104C5.07651 9.73164 5.09841 9.95543 5.16718 10.1182C5.20562 10.2091 5.3436 10.2624 5.50308 10.2615C5.66257 10.2607 5.863 10.1902 6.18523 10.0202C6.50746 9.85027 6.94543 9.58303 7.22301 9.42495C7.59688 9.21204 7.745 9.18027 7.79004 9.20991C7.87682 9.26699 7.64917 9.78728 7.47461 10.4429C7.40807 10.6928 7.4745 10.7941 7.60323 10.8364C7.73195 10.8787 7.94351 10.8639 8.32901 10.7486C8.71451 10.6333 9.26754 10.418 9.9106 10.2162C10.5537 10.0144 11.27 9.8325 11.7207 9.70726C12.1714 9.58202 12.3347 9.51892 12.5029 9.45391" stroke="white" stroke-width="1.4" stroke-linecap="round"/>
</g>
<defs>
<clipPath id="clip0_17_2">
<rect width="16" height="16" fill="white"/>
</clipPath>
</defs>
</svg>
