<svg width="32" height="32" viewBox="0 0 32 32" fill="none" xmlns="http://www.w3.org/2000/svg">
<g clip-path="url(#clip0_17_9)">
<circle cx="16" cy="16" r="16" fill="black"/>
<path d="M8 17.9856C8.14846 17.7109 8.29693 17.4362 8.82622 16.5821C9.35552 15.728 10.2611 14.3028 11.0432 13.1862C11.8252 12.0697 12.4562 11.3051 12.874 10.8333C13.4513 10.1815 13.728 10.0301 13.7994 10.0707C13.8487 10.0988 13.7743 10.2524 13.295 11.3232C12.8156 12.3941 11.8951 14.4058 11.3022 15.8504C10.7092 17.295 10.4717 18.1115 10.3419 18.6621C10.153 19.4633 10.1968 19.9109 10.3344 20.2364C10.4112 20.4183 10.6872 20.5247 11.0062 20.523C11.3251 20.5214 11.726 20.3803 12.3705 20.0404C13.0149 19.7005 13.8909 19.1661 14.446 18.8499C15.1938 18.4241 15.49 18.3605 15.5801 18.4198C15.7536 18.534 15.2983 19.5746 14.9492 20.8858C14.8161 21.3856 14.949 21.5883 15.2065 21.6729C15.4639 21.7574 15.887 21.7277 16.658 21.4972C17.429 21.2666 18.5351 20.8361 19.8212 20.4324C21.1073 20.0287 22.54 19.665 23.4414 19.4145C24.3427 19.164 24.6693 19.0378 25.0058 18.9078" stroke="white" stroke-width="2.8" stroke-linecap="round"/>
</g>
<defs>
<clipPath id="clip0_17_9">
<rect width="32" height="32" fill="white"/>
</clipPath>
</defs>
</svg>

